Screen
 
http://bayimg.com/MapDmaaDC


Seeding Time 24/7

Don't Forget To Say Thanks If You Like My Post



-=Media Info=-


Format : Windows Media
File size : 423 MiB
Duration : 28mn 32s
Overall bit rate mode : Constant
Overall bit rate : 2 074 Kbps
Maximum Overall bit rate : 2 087 Kbps
Encoded date : UTC 2007-06-19 01:29:03.453

Video
ID : 2
Format : VC-1
Format profile : MP@HL
Codec ID : WMV3
Codec ID/Info : Windows Media Video 9
Codec ID/Hint : WMV3
Description of the codec : Windows Media Video 9 - Professional
Duration : 28mn 32s
Bit rate mode : Constant
Bit rate : 2 048 Kbps
Width : 720 pixels
Height : 540 pixels
Display aspect ratio : 4:3
Frame rate : 29.970 fps
Bit depth : 8 bits
Scan type : Progressive
Compression mode : Lossy
Bits/(Pixel*Frame) : 0.176
Stream size : 418 MiB (99%)
Language : English (US)

Audio
ID : 1
Format : WMA
Format version : Version 2
Codec ID : 161
Codec ID/Info : Windows Media Audio
Description of the codec : Windows Media Audio 9.2 - 20 kbps, 32 kHz, mono (A/V) 2-pass CBR
Duration : 28mn 32s
Bit rate mode : Constant
Bit rate : 20.0 Kbps
Channel(s) : 1 channel
Sampling rate : 32.0 KHz
Bit depth : 16 bits
Stream size : 4.08 MiB (1%)
Language : English (US)
